<?xml version="1.0" encoding="UTF-8"?>
<svg xmlns="http://www.w3.org/2000/svg" xmlns:xlink="http://www.w3.org/1999/xlink" width="360pt" height="81.85pt" viewBox="0 0 360 81.85" version="1.1">
<g id="surface1">
<path style=" stroke:none;fill-rule:nonzero;fill:rgb(92.89856%,10.998535%,14.099121%);fill-opacity:1;" d="M 351.988281 24.542969 C 348.15625 24.535156 345.058594 21.4375 345.050781 17.609375 C 345.058594 13.777344 348.15625 10.679688 351.988281 10.667969 C 355.820313 10.679688 358.917969 13.777344 358.925781 17.609375 C 358.917969 21.4375 355.820313 24.535156 351.988281 24.542969 M 351.988281 9.597656 C 347.5625 9.597656 343.976563 13.183594 343.976563 17.609375 C 343.976563 22.03125 347.5625 25.617188 351.988281 25.617188 C 356.414063 25.617188 360 22.03125 360 17.609375 C 360 13.183594 356.414063 9.597656 351.988281 9.597656 M 352.328125 17.101563 L 349.964844 17.101563 L 349.964844 14.355469 L 352.59375 14.355469 C 353.210938 14.355469 353.660156 14.480469 353.945313 14.734375 C 354.230469 14.988281 354.371094 15.3125 354.371094 15.703125 C 354.371094 15.972656 354.300781 16.21875 354.152344 16.449219 C 354.003906 16.675781 353.789063 16.84375 353.503906 16.949219 C 353.222656 17.050781 352.828125 17.101563 352.328125 17.101563 M 353.828125 18.378906 C 353.679688 18.242188 353.457031 18.105469 353.164063 17.964844 C 353.964844 17.855469 354.550781 17.597656 354.933594 17.191406 C 355.3125 16.789063 355.503906 16.292969 355.503906 15.703125 C 355.503906 15.246094 355.390625 14.832031 355.160156 14.453125 C 354.929688 14.074219 354.621094 13.8125 354.238281 13.660156 C 353.851563 13.511719 353.289063 13.4375 352.546875 13.4375 L 348.867188 13.4375 L 348.867188 21.742188 L 349.964844 21.742188 L 349.964844 18.054688 L 351.238281 18.054688 C 351.523438 18.054688 351.726563 18.066406 351.851563 18.09375 C 352.019531 18.136719 352.1875 18.210938 352.351563 18.316406 C 352.515625 18.421875 352.703125 18.605469 352.910156 18.871094 C 353.117188 19.136719 353.382813 19.515625 353.703125 20.015625 L 354.804688 21.742188 L 356.1875 21.742188 L 354.742188 19.480469 C 354.453125 19.039063 354.148438 18.671875 353.828125 18.378906 M 184.148438 31.335938 C 184.148438 30.773438 185.269531 25.582031 185.667969 24.621094 C 185.667969 23.820313 185.828125 22.941406 186.148438 22.304688 C 186.148438 19.90625 186.945313 19.105469 186.945313 17.425781 C 186.945313 16.546875 185.988281 14.789063 184.949219 14.789063 C 184.230469 14.789063 182.46875 15.589844 181.992188 16.46875 C 180.789063 16.46875 180.871094 14.308594 180.871094 13.511719 C 180.871094 10.394531 182.46875 10.472656 185.429688 10.074219 C 188.144531 10.554688 191.582031 10.632813 193.421875 11.511719 C 194.78125 11.511719 196.777344 12.632813 197.738281 13.03125 C 199.015625 13.191406 203.332031 16.46875 203.332031 18.546875 C 203.332031 21.902344 195.820313 25.660156 194.539063 27.257813 C 193.179688 27.257813 185.667969 31.976563 184.789063 31.976563 C 184.390625 31.976563 184.148438 31.734375 184.148438 31.335938 M 209.726563 56.433594 C 207.648438 56.035156 207.648438 54.035156 205.648438 54.035156 C 203.972656 51.957031 202.214844 51.636719 200.453125 49.960938 C 198.695313 48.359375 197.339844 46.921875 195.097656 46.042969 C 192.382813 42.605469 186.148438 39.566406 186.148438 36.691406 C 186.148438 35.253906 190.0625 34.132813 191.503906 33.332031 C 194.621094 31.574219 196.617188 31.414063 199.8125 28.855469 C 201.8125 28.136719 208.289063 24.382813 208.6875 22.703125 C 209.644531 21.984375 211.003906 21.023438 211.003906 17.347656 C 211.003906 11.753906 207.886719 10.632813 206.847656 8.957031 C 204.53125 7.996094 204.210938 6.796875 202.292969 6.316406 C 201.175781 5.359375 199.976563 5.519531 198.695313 4.558594 C 197.816406 4.558594 196.539063 2.960938 193.261719 2.960938 C 192.78125 2.960938 190.621094 1.921875 189.265625 1.921875 L 186.308594 1.921875 C 184.230469 1.921875 182.628906 2 180.789063 3.679688 C 178.714844 4.480469 177.195313 7.277344 177.195313 9.433594 C 177.195313 10.472656 177.277344 10.871094 177.515625 11.59375 L 177.515625 19.503906 C 177.515625 21.664063 177.914063 22.304688 177.914063 24.140625 C 177.914063 25.179688 177.59375 33.972656 177.355469 34.371094 C 177.035156 34.933594 175.996094 35.652344 173.996094 36.769531 C 173.757813 37.089844 173.679688 37.488281 173.679688 38.6875 C 173.679688 41.804688 176.394531 41.007813 176.394531 43.246094 C 176.394531 49.800781 175.277344 49.960938 175.277344 58.351563 C 175.835938 58.910156 176.554688 60.75 178.476563 60.75 C 179.59375 60.75 179.355469 57.953125 180.152344 56.035156 C 180.152344 53.636719 181.671875 48.441406 181.671875 47.402344 C 181.671875 46.679688 181.828125 46.203125 182.152344 46.203125 C 182.46875 46.203125 185.429688 47.882813 186.46875 49.078125 C 189.105469 50.277344 189.824219 51.796875 190.703125 52.195313 C 192.78125 53.078125 193.261719 53.875 194.78125 54.59375 C 198.777344 58.269531 201.8125 58.992188 207.488281 61.949219 C 209.644531 62.507813 209.644531 64.105469 211.804688 64.105469 C 212.683594 64.105469 212.765625 63.707031 212.765625 60.988281 C 212.765625 57.953125 211.324219 58.113281 209.726563 56.433594 M 223.632813 36.769531 C 224.59375 36.050781 225.390625 35.011719 226.269531 35.011719 C 226.429688 35.011719 226.671875 35.332031 226.671875 35.652344 C 226.671875 36.851563 225.230469 38.527344 224.191406 39.007813 C 224.191406 39.566406 222.753906 40.367188 222.273438 40.605469 C 221.714844 40.605469 221.476563 40.527344 221.476563 40.128906 C 221.476563 38.847656 223.554688 37.167969 223.632813 36.769531 M 328.65625 36.769531 C 329.613281 36.050781 330.414063 35.011719 331.292969 35.011719 C 331.453125 35.011719 331.691406 35.332031 331.691406 35.652344 C 331.691406 36.851563 330.253906 38.527344 329.214844 39.007813 C 329.214844 39.566406 327.777344 40.367188 327.296875 40.605469 C 326.738281 40.605469 326.496094 40.527344 326.496094 40.128906 C 326.496094 38.847656 328.574219 37.167969 328.65625 36.769531 M 342.882813 45.164063 C 342.003906 45.164063 341.925781 46.679688 340.484375 47.242188 L 339.847656 47.480469 C 339.605469 47.800781 337.847656 48.519531 337.6875 48.917969 C 336.570313 49.160156 334.171875 51 331.054688 51 C 328.574219 51 328.335938 49.960938 327.21875 49.480469 C 326.816406 49.320313 326.578125 48.359375 326.417969 46.121094 C 327.21875 45.082031 328.496094 44.921875 329.296875 43.566406 C 330.015625 43.402344 333.453125 40.605469 334.730469 38.6875 C 336.089844 37.410156 337.046875 36.128906 337.449219 34.613281 C 338.246094 34.292969 338.246094 32.855469 338.246094 31.816406 C 338.246094 30.375 337.925781 29.097656 337.046875 28.777344 C 336.96875 28.136719 335.210938 27.339844 334.011719 27.339844 C 332.332031 27.339844 330.734375 27.738281 330.175781 28.855469 C 326.097656 31.09375 325.9375 32.453125 324.179688 33.894531 C 322.742188 35.652344 322.660156 37.089844 321.78125 37.808594 C 320.539063 41.457031 319.152344 42.175781 319.070313 45.582031 C 319.042969 45.578125 319.019531 45.5625 318.984375 45.5625 C 318.105469 45.5625 317.386719 47.480469 315.070313 47.480469 C 313.789063 47.480469 313.070313 46.042969 312.269531 45.5625 C 311.230469 42.765625 310.035156 42.605469 308.675781 39.886719 C 307.554688 38.847656 307.234375 38.847656 306.195313 38.847656 C 304.597656 38.847656 304.355469 39.648438 303.398438 40.207031 C 302.679688 42.042969 301.003906 43.566406 298.683594 50.359375 C 297.722656 52.4375 297.644531 54.355469 296.367188 57.074219 C 295.246094 60.910156 294.367188 61.308594 294.367188 64.027344 C 293.246094 65.542969 293.808594 67.621094 292.609375 67.863281 C 293.007813 66.585938 293.328125 62.589844 293.96875 61.628906 C 293.96875 60.75 294.367188 58.910156 295.484375 54.996094 C 295.726563 52.835938 298.761719 44.363281 298.761719 43.164063 C 300.761719 39.167969 300.839844 37.167969 301.480469 35.8125 C 301.71875 33.972656 302.519531 33.492188 303.238281 30.855469 C 303.238281 29.734375 304.917969 27.417969 304.917969 25.261719 C 304.917969 23.582031 304.355469 21.585938 303.398438 21.585938 C 302.519531 21.585938 301.640625 23.421875 301.082031 23.742188 C 300.363281 25.660156 299.242188 27.898438 298.601563 28.617188 C 298.285156 30.214844 294.445313 35.730469 293.808594 36.929688 C 293.566406 37.808594 291.171875 40.285156 291.011719 41.804688 C 290.890625 42.996094 288.953125 44.324219 287.972656 45.183594 C 287.972656 45.125 287.976563 45.0625 287.976563 45.003906 C 286.296875 45.804688 285.417969 46.921875 284.9375 47.5625 C 283.660156 47.960938 282.9375 48.519531 281.980469 48.519531 C 279.742188 48.519531 279.742188 45.402344 279.019531 44.765625 C 279.019531 42.445313 278.304688 38.128906 277.980469 37.730469 C 276.546875 35.8125 275.347656 35.492188 273.265625 35.492188 C 272.46875 36.050781 272.148438 36.371094 271.671875 37.488281 C 270.390625 37.96875 267.753906 41.484375 267.273438 42.285156 C 266.273438 42.660156 265.421875 44.003906 264.558594 44.921875 C 264.488281 44.875 264.410156 44.84375 264.316406 44.84375 C 263.757813 44.84375 263.675781 46.363281 262.476563 47.320313 C 257.84375 50.757813 255.203125 52.277344 254.324219 52.277344 C 253.925781 52.277344 253.527344 52.917969 252.566406 52.917969 C 251.6875 52.917969 250.886719 52.835938 250.246094 52.835938 C 247.691406 52.4375 247.371094 52.117188 246.730469 49.71875 C 246.890625 49.078125 246.8125 46.761719 247.453125 45.804688 C 249.6875 42.285156 254.964844 40.449219 255.925781 38.449219 C 259.761719 36.851563 262.558594 34.050781 262.558594 33.011719 C 262.558594 32.292969 262.316406 31.574219 262.160156 30.9375 C 262.160156 29.496094 261.839844 29.257813 261.359375 29.257813 C 258.5625 29.257813 255.925781 30.617188 253.847656 32.613281 C 252.886719 32.855469 247.292969 37.011719 246.414063 37.808594 C 243.695313 39.726563 242.8125 40.765625 242.335938 41.726563 C 241.75 42.050781 238.578125 44.171875 237.410156 45.339844 C 236.894531 45.75 236.609375 46.792969 235.464844 47.242188 L 234.824219 47.480469 C 234.585938 47.800781 232.824219 48.519531 232.664063 48.917969 C 231.546875 49.160156 229.148438 51 226.03125 51 C 223.554688 51 223.3125 49.960938 222.195313 49.480469 C 221.796875 49.320313 221.554688 48.359375 221.394531 46.121094 C 222.195313 45.082031 223.472656 44.921875 224.273438 43.566406 C 224.992188 43.402344 228.429688 40.605469 229.707031 38.6875 C 231.066406 37.410156 232.027344 36.128906 232.425781 34.613281 C 233.222656 34.292969 233.222656 32.855469 233.222656 31.816406 C 233.222656 30.375 232.90625 29.097656 232.027344 28.777344 C 231.945313 28.136719 230.1875 27.339844 228.988281 27.339844 C 227.308594 27.339844 225.710938 27.738281 225.152344 28.855469 C 221.074219 31.09375 220.914063 32.453125 219.15625 33.894531 C 217.71875 35.652344 217.640625 37.089844 216.761719 37.808594 C 215.480469 41.566406 214.039063 42.207031 214.039063 45.882813 C 214.039063 51.796875 216.039063 53.15625 216.679688 54.914063 C 218.839844 56.511719 220.277344 57.390625 222.992188 57.390625 C 223.632813 57.390625 224.191406 57.3125 224.910156 57.074219 C 228.890625 57.074219 232.644531 53.34375 237.058594 50.933594 C 237.109375 50.972656 237.164063 51 237.21875 51 C 237.460938 51 238.339844 49.398438 238.980469 49.398438 C 239.457031 49.398438 239.296875 51.878906 239.699219 52.355469 C 239.699219 56.433594 242.65625 56.671875 243.214844 57.710938 C 244.972656 58.753906 246.492188 58.832031 249.371094 58.832031 C 251.289063 57.953125 252.886719 58.753906 258.003906 55.3125 C 260.257813 53.859375 264.617188 51.085938 265.386719 49.394531 C 265.566406 49.261719 265.765625 49.144531 265.992188 49.078125 C 266.3125 48.441406 269.109375 45.5625 269.992188 45.5625 C 271.828125 45.5625 270.949219 47.480469 272.949219 49.320313 C 274.226563 53.957031 276.066406 54.117188 277.105469 55.15625 C 277.183594 55.15625 279.101563 55.394531 279.660156 55.394531 C 281.480469 55.394531 286.011719 52.335938 287.394531 50.652344 C 287.445313 50.667969 287.5 50.679688 287.574219 50.679688 C 288.371094 50.679688 288.773438 48.679688 291.011719 47.800781 C 291.011719 51 290.449219 51.398438 290.449219 52.835938 C 290.449219 53.476563 289.890625 54.675781 289.652344 56.832031 C 289.171875 58.113281 289.09375 60.03125 288.851563 60.75 C 288.851563 64.746094 287.8125 67.542969 287.8125 68.824219 C 287.492188 68.902344 287.492188 74.335938 287.335938 75.457031 C 287.335938 76.65625 287.414063 78.734375 287.492188 80.25 C 287.972656 81.210938 289.011719 81.851563 290.289063 81.851563 C 291.410156 81.851563 291.648438 80.890625 292.050781 79.851563 C 292.449219 78.734375 293.566406 78.09375 293.808594 74.976563 C 294.605469 73.617188 296.285156 68.984375 296.367188 67.304688 C 297.164063 65.785156 299.324219 60.109375 299.324219 58.511719 C 300.519531 57.230469 303.160156 48.039063 304.839844 48.039063 C 305.957031 48.039063 309.234375 53.394531 312.753906 53.394531 C 314.511719 53.394531 319.386719 51 319.386719 49.960938 C 319.386719 49.804688 319.386719 49.679688 319.386719 49.542969 C 319.976563 52.5 321.222656 53.597656 321.703125 54.914063 C 323.859375 56.511719 325.296875 57.390625 328.015625 57.390625 C 328.65625 57.390625 329.214844 57.3125 329.933594 57.074219 C 334.011719 57.074219 337.847656 53.15625 342.40625 50.757813 C 342.804688 50.597656 343.363281 49.800781 343.363281 46.761719 C 343.363281 46.441406 343.523438 46.121094 343.523438 45.722656 C 343.523438 45.402344 343.445313 45.164063 342.882813 45.164063 M 39.003906 36.769531 C 39.964844 36.050781 40.765625 35.011719 41.644531 35.011719 C 41.800781 35.011719 42.042969 35.332031 42.042969 35.652344 C 42.042969 36.851563 40.601563 38.527344 39.566406 39.007813 C 39.566406 39.566406 38.125 40.367188 37.648438 40.605469 C 37.085938 40.605469 36.847656 40.527344 36.847656 40.128906 C 36.847656 38.847656 38.925781 37.167969 39.003906 36.769531 M 116.292969 36.769531 C 117.253906 36.050781 118.050781 35.011719 118.929688 35.011719 C 119.089844 35.011719 119.328125 35.332031 119.328125 35.652344 C 119.328125 36.851563 117.890625 38.527344 116.851563 39.007813 C 116.851563 39.566406 115.414063 40.367188 114.933594 40.605469 C 114.371094 40.605469 114.136719 40.527344 114.136719 40.128906 C 114.136719 38.847656 116.214844 37.167969 116.292969 36.769531 M 154.496094 44.683594 C 153.777344 44.683594 153.296875 45.960938 151.140625 47.242188 C 150.820313 47.882813 146.265625 51.878906 145.386719 51.878906 C 144.90625 51.878906 144.746094 51.558594 144.746094 51 C 144.746094 48.761719 145.304688 44.523438 146.023438 42.363281 C 146.023438 40.046875 147.382813 37.410156 147.621094 35.570313 C 149.382813 30.457031 149.863281 28.136719 150.019531 27.417969 C 150.34375 26.058594 153.777344 27.339844 153.777344 25.417969 C 153.777344 22.621094 154.097656 21.105469 154.097656 20.226563 C 154.097656 19.503906 152.898438 19.664063 152.898438 18.945313 C 152.898438 17.746094 154.097656 15.828125 154.097656 14.46875 C 154.097656 12.632813 153.539063 11.753906 151.621094 11.511719 C 147.542969 14.148438 148.261719 19.347656 145.464844 19.347656 C 144.90625 19.347656 144.347656 19.265625 143.945313 19.1875 C 143.148438 19.425781 142.347656 19.425781 141.46875 19.425781 C 140.511719 19.1875 139.152344 19.1875 138.433594 19.1875 C 138.03125 19.1875 137.394531 19.425781 136.671875 19.425781 C 136.195313 19.425781 135.871094 19.1875 132.515625 19.1875 C 130.839844 19.1875 130.597656 21.183594 130.597656 24.703125 C 130.597656 25.179688 130.679688 25.660156 133.714844 26.378906 C 134.113281 26.378906 134.433594 26.140625 134.914063 26.140625 C 135.394531 26.140625 135.714844 26.539063 136.992188 26.539063 C 138.351563 26.539063 141.628906 26.378906 142.589844 26.378906 C 143.066406 26.378906 143.226563 26.617188 143.226563 26.859375 C 143.226563 27.417969 139.3125 33.492188 138.351563 35.492188 C 136.753906 37.167969 135.472656 39.808594 133.796875 41.484375 C 132.179688 43.574219 130.871094 44.398438 130.15625 45.277344 C 129.585938 45.628906 129.332031 46.769531 128.121094 47.242188 L 127.480469 47.480469 C 127.242188 47.800781 125.484375 48.519531 125.324219 48.917969 C 124.203125 49.160156 121.808594 51 118.691406 51 C 116.214844 51 115.972656 49.960938 114.855469 49.480469 C 114.453125 49.320313 114.214844 48.359375 114.054688 46.121094 C 114.855469 45.082031 116.132813 44.921875 116.933594 43.566406 C 117.652344 43.402344 121.089844 40.605469 122.367188 38.6875 C 123.726563 37.410156 124.6875 36.128906 125.085938 34.613281 C 125.886719 34.292969 125.886719 32.855469 125.886719 31.816406 C 125.886719 30.375 125.5625 29.097656 124.6875 28.777344 C 124.605469 28.136719 122.847656 27.339844 121.648438 27.339844 C 119.96875 27.339844 118.371094 27.738281 117.8125 28.855469 C 113.734375 31.09375 113.574219 32.453125 111.816406 33.894531 C 110.378906 35.652344 110.296875 37.089844 109.417969 37.808594 C 108.140625 41.566406 106.699219 42.207031 106.699219 45.882813 C 106.699219 46.363281 106.71875 46.800781 106.742188 47.222656 C 106.703125 47.121094 106.671875 47.019531 106.621094 46.921875 C 106.621094 45.640625 106.542969 45.480469 106.144531 45.480469 C 105.824219 45.480469 105.503906 45.882813 105.503906 46.121094 C 105.503906 46.761719 98.789063 52.117188 97.671875 52.117188 C 97.351563 52.117188 97.191406 51.957031 97.191406 51.796875 C 97.191406 48.601563 99.589844 46.042969 99.589844 42.125 C 99.589844 40.765625 99.429688 38.929688 98.628906 36.851563 C 97.671875 35.890625 97.671875 35.171875 96.953125 34.210938 C 95.511719 33.492188 95.191406 30.695313 90.957031 30.695313 C 89.4375 30.695313 88.640625 31.976563 88 32.132813 C 86.800781 33.652344 85.28125 33.734375 85.28125 34.53125 C 85.28125 35.492188 85.679688 35.890625 85.679688 36.769531 C 84.882813 37.011719 84.480469 39.007813 81.523438 42.285156 C 81.253906 43.28125 80.445313 44.121094 79.792969 44.871094 C 79.757813 44.859375 79.726563 44.84375 79.6875 44.84375 C 79.128906 44.84375 79.046875 46.363281 77.847656 47.320313 C 73.214844 50.757813 70.574219 52.277344 69.695313 52.277344 C 69.296875 52.277344 68.898438 52.917969 67.9375 52.917969 C 67.058594 52.917969 66.261719 52.835938 65.621094 52.835938 C 63.0625 52.4375 62.742188 52.117188 62.101563 49.71875 C 62.261719 49.078125 62.183594 46.761719 62.824219 45.804688 C 65.058594 42.285156 70.335938 40.449219 71.292969 38.449219 C 75.132813 36.851563 77.929688 34.050781 77.929688 33.011719 C 77.929688 32.292969 77.691406 31.574219 77.53125 30.9375 C 77.53125 29.496094 77.210938 29.257813 76.730469 29.257813 C 73.933594 29.257813 71.292969 30.617188 69.21875 32.613281 C 68.257813 32.855469 62.664063 37.011719 61.78125 37.808594 C 59.066406 39.726563 58.1875 40.765625 57.707031 41.726563 C 57.121094 42.050781 53.945313 44.175781 52.78125 45.34375 C 52.269531 45.753906 51.980469 46.792969 50.835938 47.242188 L 50.195313 47.480469 C 49.957031 47.800781 48.195313 48.519531 48.039063 48.917969 C 46.917969 49.160156 44.519531 51 41.402344 51 C 38.925781 51 38.683594 49.960938 37.566406 49.480469 C 37.167969 49.320313 36.925781 48.359375 36.765625 46.121094 C 37.566406 45.082031 38.84375 44.921875 39.644531 43.566406 C 40.363281 43.402344 43.800781 40.605469 45.078125 38.6875 C 46.4375 37.410156 47.398438 36.128906 47.796875 34.613281 C 48.597656 34.292969 48.597656 32.855469 48.597656 31.816406 C 48.597656 30.375 48.277344 29.097656 47.398438 28.777344 C 47.316406 28.136719 45.558594 27.339844 44.359375 27.339844 C 42.679688 27.339844 41.082031 27.738281 40.523438 28.855469 C 36.449219 31.09375 36.289063 32.453125 34.527344 33.894531 C 33.089844 35.652344 33.011719 37.089844 32.128906 37.808594 C 30.851563 41.566406 29.414063 42.207031 29.414063 45.882813 C 29.414063 51.796875 31.410156 53.15625 32.050781 54.914063 C 34.207031 56.511719 35.648438 57.390625 38.367188 57.390625 C 39.003906 57.390625 39.566406 57.3125 40.285156 57.074219 C 44.265625 57.074219 48.015625 53.34375 52.429688 50.933594 C 52.480469 50.972656 52.535156 51 52.59375 51 C 52.832031 51 53.710938 49.398438 54.347656 49.398438 C 54.828125 49.398438 54.667969 51.878906 55.070313 52.355469 C 55.070313 56.433594 58.027344 56.671875 58.585938 57.710938 C 60.34375 58.753906 61.863281 58.832031 64.742188 58.832031 C 66.660156 57.953125 68.257813 58.753906 73.371094 55.3125 C 75.8125 53.742188 80.71875 50.621094 80.871094 49 C 81.488281 48.144531 82.089844 47.277344 82.324219 47.160156 C 83.601563 46.363281 88.398438 39.328125 90.15625 39.328125 C 92.15625 39.328125 92.792969 42.6875 92.792969 44.441406 C 92.792969 46.921875 91.035156 51.71875 91.035156 53.078125 C 90.078125 54.59375 89.519531 56.832031 89.519531 57.710938 C 89.519531 58.832031 89.996094 59.789063 92.714844 59.789063 C 94.554688 59.789063 96.871094 57.550781 98.550781 56.992188 C 99.828125 56.59375 103.746094 52.996094 105.585938 51.878906 C 105.660156 50.832031 106.832031 50.269531 106.992188 49.355469 C 107.570313 52.453125 108.851563 53.570313 109.339844 54.914063 C 111.496094 56.511719 112.9375 57.390625 115.652344 57.390625 C 116.292969 57.390625 116.851563 57.3125 117.570313 57.074219 C 121.5625 57.074219 125.324219 53.324219 129.753906 50.914063 C 129.769531 50.996094 129.78125 51.078125 129.800781 51.15625 C 131.238281 49.398438 132.035156 49.398438 136.992188 44.042969 C 138.828125 41.964844 139.472656 40.605469 139.949219 40.605469 C 140.03125 40.605469 140.1875 40.765625 140.1875 40.925781 C 140.1875 41.246094 138.992188 42.445313 138.351563 49.71875 C 137.953125 50.199219 137.792969 51.238281 137.554688 56.035156 C 137.394531 58.511719 137.871094 59.550781 138.671875 59.789063 C 140.511719 60.429688 140.671875 61.230469 141.46875 61.230469 C 142.109375 61.230469 146.503906 57.710938 148.183594 55.632813 C 149.703125 55.074219 151.9375 52.039063 152.496094 51.878906 C 154.019531 50.679688 154.976563 49.71875 154.976563 48.519531 C 154.976563 48.121094 154.816406 47.71875 154.816406 47.242188 C 154.816406 46.84375 154.976563 46.363281 154.976563 45.882813 C 154.976563 44.765625 154.816406 44.683594 154.496094 44.683594 M 277.105469 23.980469 C 278.621094 22.78125 281.101563 22.460938 281.980469 18.707031 C 282.699219 17.988281 283.179688 14.46875 283.179688 13.429688 C 282.699219 13.109375 282.699219 12.472656 281.660156 12.472656 C 280.382813 12.472656 277.664063 13.351563 277.265625 14.871094 C 274.945313 15.75 272.949219 18.226563 272.949219 20.785156 C 272.949219 22.0625 273.425781 22.222656 273.667969 23.183594 C 273.828125 23.902344 274.226563 23.980469 277.105469 23.980469 M 27.417969 0.00390625 C 25.496094 0.00390625 20.460938 2.5625 19.261719 2.800781 C 17.746094 3.121094 15.746094 5.199219 14.308594 5.757813 C 10.632813 9.035156 8.871094 9.355469 6.074219 12.710938 C 5.117188 15.191406 2.398438 17.1875 2.398438 21.023438 C 2.398438 25.101563 2.558594 27.5 5.59375 30.136719 C 5.753906 31.894531 9.671875 34.691406 10.949219 36.128906 C 11.671875 36.53125 12.628906 38.6875 14.628906 39.886719 C 16.066406 42.207031 18.785156 43.882813 18.785156 47.082031 C 18.785156 48.679688 16.546875 48.839844 16.546875 49.960938 L 16.546875 51 C 16.144531 51.636719 13.589844 54.515625 12.550781 54.515625 C 12.148438 54.515625 11.988281 54.433594 11.988281 54.117188 C 11.988281 53.636719 15.027344 52.835938 15.027344 51.476563 C 15.027344 50.917969 14.308594 50.359375 13.988281 50.359375 C 13.03125 50.359375 7.671875 53.476563 4.71875 54.59375 C 2.078125 56.511719 0 57.152344 0 59.070313 C 0 61.070313 1.4375 61.628906 4.554688 62.667969 C 8.394531 62.667969 9.273438 60.988281 11.828125 60.109375 C 14.789063 57.792969 18.386719 57.152344 22.941406 51.238281 C 24.140625 49.640625 27.175781 49.078125 27.175781 47.960938 C 27.175781 45.882813 27.097656 45.804688 25.738281 45.5625 C 25.578125 41.484375 25.019531 39.328125 21.023438 35.089844 C 19.824219 33.171875 17.425781 31.414063 16.707031 30.136719 C 15.265625 27.5 12.230469 25.179688 11.910156 23.660156 C 11.589844 21.984375 10.710938 20.945313 10.710938 19.746094 C 10.710938 14.390625 17.824219 9.355469 18.703125 9.355469 C 18.863281 9.355469 18.945313 9.515625 18.945313 9.675781 C 18.945313 10.953125 15.507813 11.992188 15.507813 14.070313 C 15.507813 14.949219 16.304688 15.191406 17.34375 15.191406 C 19.421875 13.910156 21.902344 13.03125 25.417969 10.234375 C 27.496094 8.554688 28.136719 7.757813 28.695313 7.597656 C 29.574219 7.355469 29.8125 4.480469 29.8125 3.839844 C 29.8125 1.042969 29.335938 0.722656 27.417969 0.00390625 "/>
</g>
</svg>
